<svg xmlns="http://www.w3.org/2000/svg" viewBox="0 0 438.65 660.12">
    <defs>
        <style>
            .cls-1{fill:#fff;stroke-miterlimit:10;stroke-width:30px;}.cls-1,.cls-2{stroke:#fff;}.cls-2{fill:none;stroke-width:50px;}
        </style>
    </defs>
    <title>Asset 6</title>
    <g id="Layer_2">
        <g id="Layer_1-2">
            <path class="cls-1"
                d="M288.74,530.4c-1.72-.24-3.45-.46-5.16-.71a57.81,57.81,0,0,1-29.65-13.36,58.43,58.43,0,0,1-19.79-32.87c-1.92-8.78-2-17.52,1.16-26.11,3.34-9,8.37-17,13.82-24.75,7.18-10.23,14.61-20.31,21.61-30.66,8.33-12.32,14.39-25.51,14.29-40.85,0-3,.43-6.08.67-9.15.27.07.41.06.48.12,7,7.28,14.44,14.23,21,21.91,10.11,11.85,18.24,25.11,25.55,38.85,7,13.17,13,26.75,16.65,41.28,2.47,9.85,3.15,19.72.88,29.71a58.82,58.82,0,0,1-15.38,28.47A56.71,56.71,0,0,1,308.53,528c-4.18,1.11-8.53,1.61-12.81,2.4Zm5-138.15c-4.91,11-11.64,20.89-18.58,30.67-6.66,9.39-13.31,18.79-19.69,28.36-3.29,4.93-6,10.3-6.87,16.26a36.85,36.85,0,0,0,3.43,21.06c7,15,18.79,24.12,35.26,25.89,17.7,1.9,31.89-5,41.8-19.84,7.92-11.86,8.59-24.87,4.86-38.34-4.45-16.08-11.51-31-20.06-45.27-5-8.3-10.73-16.17-16.14-24.22a17.55,17.55,0,0,0-1.19-1.44C295.61,387.78,294.75,390,293.77,392.25Z" />
            <path class="cls-2"
                d="M413.65,449.28c0,102.63-87,185.84-194.32,185.84S25,551.91,25,449.28,139.79,276.15,219.33,68.22C318.65,313.35,413.65,346.64,413.65,449.28Z" />
        </g>
    </g>
</svg>