<svg xmlns="http://www.w3.org/2000/svg" data-name="Layer 1" viewBox="0 0 512 512">
    <path fill="#ff2156"
        d="M359,300.6a72.278,72.278,0,0,0-70.2-55.2,96.46,96.46,0,0,1-155.4,0,72.339,72.339,0,0,0-72.3,72.3v142h300v-.6Z" />
    <path fill="#ffaaaa" d="M211,52.3a80.35,80.35,0,1,1-80.4,80.3A80.4,80.4,0,0,1,211,52.3Z" />
    <path fill="#ff00ff"
        d="M371,299.7a80,80,0,0,1,0,160,82.619,82.619,0,0,1-10-.6,80.019,80.019,0,0,1-2-158.5A78.816,78.816,0,0,1,371,299.7Z" />
    <path fill="#ff2156"
        d="M371 330.4a10.029 10.029 0 0 0-10 10V387a10 10 0 0 0 20 0V340.4A10.029 10.029 0 0 0 371 330.4zM371 402.4a10.029 10.029 0 0 0-10 10V419a10 10 0 0 0 20 0v-6.6A10.029 10.029 0 0 0 371 402.4z" />
</svg>